<svg width="39" height="34" viewBox="0 0 39 34" fill="none" xmlns="http://www.w3.org/2000/svg">
<g clip-path="url(#clip0_211_2080)">
<path d="M38.8875 13.9507C38.8915 13.9217 38.8915 13.8924 38.8875 13.8634C38.8913 13.8397 38.8913 13.8156 38.8875 13.7919L38.6039 11.7506C38.563 11.5063 38.4536 11.2781 38.288 11.0913L38.2393 11.0357L38.1503 10.9483L33.2405 6.80213L33.3782 6.93717C33.2655 6.805 33.1241 6.69928 32.9642 6.62779C32.8044 6.55631 32.6302 6.52089 32.4546 6.52413H30.9638C30.7214 6.51942 30.4845 6.59498 30.2913 6.73859C30.0885 6.59585 29.8443 6.52068 29.5946 6.52413H28.1038C27.9083 6.52102 27.7154 6.5686 27.5447 6.66205C27.3739 6.7555 27.2314 6.89151 27.1316 7.0563C26.9776 7.29168 26.9197 7.57528 26.9695 7.8506L27.1559 9.13734C27.0324 9.06873 26.8927 9.03313 26.7508 9.03409H19.5319C19.2729 9.03569 19.0199 9.11011 18.8027 9.24854C18.5927 9.37739 18.4242 9.5619 18.3166 9.78071L17.7576 9.31209C17.5375 9.1125 17.2471 9.00432 16.9474 9.01026H5.62085C5.36093 9.0149 5.10678 9.08609 4.88359 9.21677C4.57825 9.39199 4.35447 9.67688 4.25973 10.0111L0.662456 21.8063C0.595242 22.0006 0.58863 22.2102 0.643467 22.4083C0.698304 22.6063 0.812106 22.7839 0.970334 22.9183C1.01156 22.9525 1.05485 22.9844 1.09997 23.0136C1.09997 23.0136 1.02704 22.9659 0.986529 22.9262L5.89634 27.0804C6.10403 27.2678 6.37558 27.3726 6.65787 27.3742H18.0736C18.3343 27.3676 18.5886 27.2936 18.8109 27.1598C18.9366 27.0924 19.049 27.0037 19.143 26.8976L19.1835 26.842L19.2484 26.7626L19.297 26.6752L19.8317 27.128C20.0364 27.308 20.3021 27.4071 20.5771 27.406H32.017C32.2775 27.3975 32.5313 27.3237 32.7543 27.1916C32.8772 27.1201 32.989 27.0318 33.0865 26.9294L33.127 26.8738L33.1918 26.7944C33.2263 26.7442 33.2561 26.691 33.2809 26.6355C33.3074 26.5874 33.3291 26.5368 33.3457 26.4846L36.627 15.7141V15.6188C36.6311 15.5818 36.6311 15.5445 36.627 15.5076V15.4361C36.631 15.4124 36.631 15.3883 36.627 15.3646C36.6307 15.3143 36.6307 15.2639 36.627 15.2136H37.6803C37.7719 15.2219 37.8641 15.2219 37.9557 15.2136H38.0287C38.088 15.1963 38.1451 15.1723 38.1989 15.1422H38.2799L38.4257 15.031L38.4905 14.9833L38.6039 14.8403V14.7927L38.685 14.6577C38.6804 14.6314 38.6804 14.6045 38.685 14.5782C38.6806 14.5654 38.6806 14.5514 38.685 14.5385C38.7022 14.492 38.7157 14.4441 38.7255 14.3955C38.7217 14.3799 38.7217 14.3635 38.7255 14.3479C38.7215 14.3242 38.7215 14.3 38.7255 14.2764C38.7255 14.2764 38.8875 13.9666 38.8875 13.9507Z" fill="black"/>
<path d="M17.2796 9.91603C17.3226 9.95416 17.3526 10.0043 17.3657 10.0597C17.3788 10.1151 17.3741 10.173 17.3525 10.2258L13.7634 22.0131C13.7182 22.1417 13.6257 22.2493 13.5041 22.3149C13.4052 22.3798 13.2906 22.4181 13.1719 22.4261H1.76436C1.66694 22.4215 1.57464 22.3819 1.50509 22.3149C1.46372 22.2774 1.43468 22.2286 1.42169 22.1749C1.4087 22.1211 1.41236 22.0648 1.43218 22.0131L5.02945 10.2258C5.0709 10.0955 5.16045 9.98502 5.28061 9.91603C5.38119 9.85579 5.49518 9.82036 5.61279 9.81277H17.0203C17.117 9.81368 17.2097 9.8506 17.2796 9.91603ZM11.3246 19.6381L13.4717 12.6007H7.46005L5.32111 19.6381H11.3246ZM28.1686 10.0352C28.2075 10.0795 28.2562 10.1147 28.3109 10.1381C28.3656 10.1614 28.425 10.1724 28.4846 10.1702H29.9673C30.0237 10.1707 30.0794 10.1572 30.129 10.1308C30.1786 10.1044 30.2205 10.066 30.2508 10.0193C30.2772 9.9828 30.2958 9.9415 30.3055 9.89783C30.3152 9.85418 30.3159 9.80904 30.3075 9.76511L30.0159 7.66819C29.9881 7.57114 29.9382 7.48152 29.8701 7.40607C29.8311 7.36173 29.7825 7.32656 29.7278 7.30318C29.6731 7.27981 29.6137 7.26882 29.5541 7.27104H28.0714C28.015 7.2705 27.9593 7.28408 27.9097 7.31048C27.8601 7.33689 27.8181 7.37525 27.7879 7.42196C27.7311 7.53316 27.7068 7.60464 27.7311 7.66819L28.0309 9.76511C28.0463 9.86722 28.0946 9.96183 28.1686 10.0352ZM32.8759 7.6523C32.8481 7.55525 32.7982 7.46563 32.73 7.39018C32.6928 7.346 32.6455 7.31085 32.5922 7.28743C32.5388 7.26401 32.4806 7.25297 32.4222 7.25515H30.9314C30.8759 7.2536 30.8209 7.26681 30.7725 7.29338C30.724 7.31995 30.6837 7.35889 30.656 7.40607C30.602 7.47654 30.5787 7.56505 30.5911 7.6523L30.8909 9.74922C30.9097 9.85025 30.9574 9.94393 31.0286 10.0193C31.0682 10.0628 31.117 10.0973 31.1716 10.1206C31.2261 10.1439 31.2851 10.1554 31.3446 10.1543H32.8354C32.8908 10.155 32.9453 10.1415 32.9937 10.115C33.042 10.0885 33.0825 10.05 33.1109 10.0034C33.139 9.96786 33.1587 9.92658 33.1685 9.8826C33.1784 9.83862 33.178 9.79305 33.1675 9.74922L32.8759 7.6523ZM26.8642 10.8295L26.7184 9.79688H19.5319C19.4191 9.80298 19.31 9.83864 19.216 9.90014C19.1563 9.93204 19.1043 9.97626 19.0638 10.0297C19.0233 10.0832 18.995 10.1447 18.981 10.2099L18.3815 12.1797C18.3575 12.229 18.3494 12.2842 18.358 12.3381C18.3667 12.3919 18.3918 12.442 18.4301 12.4816C18.4984 12.5445 18.5876 12.5812 18.6813 12.5848H27.4152L25.2681 19.6223H16.5585C16.4462 19.6248 16.3368 19.6578 16.2426 19.7175C16.128 19.7889 16.0443 19.8992 16.0076 20.0273L15.4 21.9972C15.3801 22.0477 15.3749 22.1026 15.3849 22.1559C15.395 22.2092 15.4197 22.2587 15.4566 22.299C15.5228 22.3662 15.6127 22.406 15.7078 22.4102H27.1478C27.2661 22.4002 27.3801 22.362 27.4799 22.299C27.5996 22.2331 27.6893 22.1253 27.7311 21.9972L31.0205 11.2266H27.3179C27.2592 11.2277 27.2008 11.217 27.1465 11.1952C27.0922 11.1733 27.043 11.1408 27.002 11.0995C26.935 11.0275 26.8876 10.9401 26.8642 10.8453V10.8295Z" fill="white"/>
</g>
<defs>
<clipPath id="clip0_211_2080">
<rect width="38.2838" height="20.8821" fill="white" transform="translate(0.606689 6.52393)"/>
</clipPath>
</defs>
</svg>
