<svg width="39" height="34" viewBox="0 0 39 34" fill="none" xmlns="http://www.w3.org/2000/svg">
<g clip-path="url(#clip0_211_2052)">
<path d="M38.5804 13.9507C38.5844 13.9217 38.5844 13.8924 38.5804 13.8634C38.5842 13.8397 38.5842 13.8156 38.5804 13.7919L38.2968 11.7506C38.2559 11.5063 38.1465 11.2781 37.9808 11.0913L37.9322 11.0357L37.8431 10.9483L32.9333 6.80213L33.071 6.93717C32.9584 6.805 32.8169 6.69928 32.6571 6.62779C32.4973 6.55631 32.3231 6.52089 32.1474 6.52413H30.6567C30.4143 6.51942 30.1774 6.59498 29.9842 6.73859C29.7813 6.59585 29.5371 6.52068 29.2874 6.52413H27.7966C27.6011 6.52102 27.4083 6.5686 27.2375 6.66205C27.0668 6.7555 26.9243 6.89151 26.8245 7.0563C26.6705 7.29168 26.6126 7.57528 26.6624 7.8506L26.8488 9.13734C26.7253 9.06873 26.5856 9.03313 26.4436 9.03409H19.2248C18.9658 9.03569 18.7127 9.11011 18.4956 9.24854C18.2856 9.37739 18.1171 9.5619 18.0095 9.78071L17.4504 9.31209C17.2304 9.1125 16.94 9.00432 16.6403 9.01026H5.31372C5.0538 9.0149 4.79965 9.08609 4.57646 9.21677C4.27112 9.39199 4.04734 9.67688 3.9526 10.0111L0.355327 21.8063C0.288114 22.0006 0.281502 22.2102 0.336338 22.4083C0.391175 22.6063 0.504977 22.7839 0.663205 22.9183C0.704435 22.9525 0.747726 22.9844 0.79284 23.0136C0.79284 23.0136 0.719911 22.9659 0.6794 22.9262L5.58921 27.0804C5.7969 27.2678 6.06845 27.3726 6.35074 27.3742H17.7664C18.0271 27.3676 18.2815 27.2936 18.5037 27.1598C18.6294 27.0924 18.7419 27.0037 18.8359 26.8976L18.8764 26.842L18.9412 26.7626L18.9898 26.6752L19.5246 27.128C19.7293 27.308 19.9949 27.4071 20.2699 27.406H31.7099C31.9703 27.3975 32.2242 27.3237 32.4472 27.1916C32.5701 27.1201 32.6819 27.0318 32.7794 26.9294L32.8199 26.8738L32.8847 26.7944C32.9191 26.7442 32.949 26.691 32.9738 26.6355C33.0003 26.5874 33.022 26.5368 33.0386 26.4846L36.3199 15.7141V15.6188C36.3239 15.5818 36.3239 15.5445 36.3199 15.5076V15.4361C36.3238 15.4124 36.3238 15.3883 36.3199 15.3646C36.3236 15.3143 36.3236 15.2639 36.3199 15.2136H37.3732C37.4648 15.2219 37.557 15.2219 37.6486 15.2136H37.7216C37.7809 15.1963 37.838 15.1723 37.8917 15.1422H37.9728L38.1186 15.031L38.1834 14.9833L38.2968 14.8403V14.7927L38.3778 14.6577C38.3733 14.6314 38.3733 14.6045 38.3778 14.5782C38.3735 14.5654 38.3735 14.5514 38.3778 14.5385C38.3951 14.492 38.4086 14.4441 38.4183 14.3955C38.4146 14.3799 38.4146 14.3635 38.4183 14.3479C38.4144 14.3242 38.4144 14.3 38.4183 14.2764C38.4183 14.2764 38.5804 13.9666 38.5804 13.9507Z" fill="black"/>
<path d="M16.9725 9.91603C17.0155 9.95416 17.0455 10.0043 17.0585 10.0597C17.0716 10.1151 17.067 10.173 17.0454 10.2258L13.4562 22.0131C13.4111 22.1417 13.3186 22.2493 13.197 22.3149C13.098 22.3798 12.9835 22.4181 12.8648 22.4261H1.45723C1.35981 22.4215 1.26751 22.3819 1.19796 22.3149C1.15659 22.2774 1.12755 22.2286 1.11456 22.1749C1.10157 22.1211 1.10523 22.0648 1.12505 22.0131L4.72232 10.2258C4.76377 10.0955 4.85333 9.98502 4.97348 9.91603C5.07406 9.85579 5.18805 9.82036 5.30566 9.81277H16.7132C16.8099 9.81368 16.9025 9.8506 16.9725 9.91603ZM11.0175 19.6381L13.1645 12.6007H7.15292L5.01398 19.6381H11.0175ZM27.8615 10.0352C27.9004 10.0795 27.9491 10.1147 28.0038 10.1381C28.0585 10.1614 28.1178 10.1724 28.1775 10.1702H29.6601C29.7166 10.1707 29.7722 10.1572 29.8219 10.1308C29.8715 10.1044 29.9134 10.066 29.9437 10.0193C29.97 9.9828 29.9886 9.9415 29.9984 9.89783C30.0081 9.85418 30.0088 9.80904 30.0004 9.76511L29.7087 7.66819C29.681 7.57114 29.6311 7.48152 29.5629 7.40607C29.524 7.36173 29.4754 7.32656 29.4207 7.30318C29.3659 7.27981 29.3065 7.26882 29.2469 7.27104H27.7643C27.7078 7.2705 27.6522 7.28408 27.6025 7.31048C27.5529 7.33689 27.511 7.37525 27.4807 7.42196C27.424 7.53316 27.3997 7.60464 27.424 7.66819L27.7238 9.76511C27.7391 9.86722 27.7874 9.96183 27.8615 10.0352ZM32.5688 7.6523C32.5409 7.55525 32.4911 7.46563 32.4229 7.39018C32.3856 7.346 32.3384 7.31085 32.285 7.28743C32.2316 7.26401 32.1735 7.25297 32.115 7.25515H30.6243C30.5687 7.2536 30.5138 7.26681 30.4653 7.29338C30.4168 7.31995 30.3766 7.35889 30.3488 7.40607C30.2949 7.47654 30.2716 7.56505 30.284 7.6523L30.5837 9.74922C30.6026 9.85025 30.6503 9.94393 30.7215 10.0193C30.7611 10.0628 30.8099 10.0973 30.8644 10.1206C30.919 10.1439 30.978 10.1554 31.0375 10.1543H32.5282C32.5836 10.155 32.6382 10.1415 32.6865 10.115C32.7349 10.0885 32.7753 10.05 32.8037 10.0034C32.8319 9.96786 32.8516 9.92658 32.8614 9.8826C32.8713 9.83862 32.8709 9.79305 32.8604 9.74922L32.5688 7.6523ZM26.5571 10.8295L26.4112 9.79688H19.2248C19.112 9.80298 19.0028 9.83864 18.9088 9.90014C18.8492 9.93204 18.7972 9.97626 18.7566 10.0297C18.7161 10.0832 18.6879 10.1447 18.6739 10.2099L18.0743 12.1797C18.0504 12.229 18.0422 12.2842 18.0509 12.3381C18.0596 12.3919 18.0847 12.442 18.1229 12.4816C18.1913 12.5445 18.2804 12.5812 18.3741 12.5848H27.108L24.961 19.6223H16.2514C16.1391 19.6248 16.0297 19.6578 15.9354 19.7175C15.8209 19.7889 15.7372 19.8992 15.7005 20.0273L15.0928 21.9972C15.073 22.0477 15.0678 22.1026 15.0778 22.1559C15.0878 22.2092 15.1126 22.2587 15.1495 22.299C15.2157 22.3662 15.3056 22.406 15.4007 22.4102H26.8406C26.959 22.4002 27.073 22.362 27.1728 22.299C27.2924 22.2331 27.3822 22.1253 27.424 21.9972L30.7134 11.2266H27.0108C26.952 11.2277 26.8937 11.217 26.8394 11.1952C26.785 11.1733 26.7358 11.1408 26.6948 11.0995C26.6278 11.0275 26.5805 10.9401 26.5571 10.8453V10.8295Z" fill="white"/>
</g>
<defs>
<clipPath id="clip0_211_2052">
<rect width="38.2838" height="20.8821" fill="white" transform="translate(0.299561 6.52393)"/>
</clipPath>
</defs>
</svg>
