<svg width="37" height="34" viewBox="0 0 37 34" fill="none" xmlns="http://www.w3.org/2000/svg">
<g clip-path="url(#clip0_211_2076)">
<path d="M8.81751 10.0039C7.40398 10.0039 6.04836 10.5654 5.04885 11.5649L1.78686 14.8269C0.787349 15.8264 0.22583 17.1821 0.22583 18.5956C0.22583 21.5391 2.61202 23.9253 5.55554 23.9253C6.96907 23.9253 8.32469 23.3638 9.3242 22.3642L11.5805 20.1079C11.5805 20.1079 11.5806 20.108 11.5805 20.1079L18.1547 13.5337C18.6321 13.0564 19.2795 12.7882 19.9546 12.7882C21.0849 12.7882 22.0431 13.5248 22.3753 14.5442L24.4501 12.4694C23.5036 10.9869 21.8439 10.0039 19.9546 10.0039C18.5411 10.0039 17.1855 10.5654 16.186 11.5649L7.35544 20.3955C6.87807 20.8728 6.23064 21.141 5.55554 21.141C4.14973 21.141 3.01011 20.0014 3.01011 18.5956C3.01011 17.9205 3.27828 17.2731 3.75564 16.7957L7.01761 13.5337C7.49498 13.0564 8.14241 12.7882 8.81751 12.7882C9.94779 12.7882 10.9059 13.5248 11.2382 14.5442L13.313 12.4694C12.3665 10.9869 10.7068 10.0039 8.81751 10.0039Z" fill="#394149"/>
<path d="M18.4927 20.3955C18.0153 20.8728 17.3679 21.141 16.6928 21.141C15.5627 21.141 14.6046 20.4046 14.2723 19.3854L12.1975 21.4601C13.1441 22.9424 14.8036 23.9253 16.6928 23.9253C18.1063 23.9253 19.4619 23.3638 20.4614 22.3642L29.292 13.5337C29.7693 13.0564 30.4168 12.7882 31.0919 12.7882C32.4977 12.7882 33.6373 13.9278 33.6373 15.3336C33.6373 16.0087 33.3691 16.6561 32.8917 17.1335L29.6298 20.3955C29.1524 20.8728 28.505 21.141 27.8299 21.141C26.6997 21.141 25.7415 20.4044 25.4093 19.3852L23.3345 21.46C24.281 22.9424 25.9407 23.9253 27.8299 23.9253C29.2434 23.9253 30.599 23.3638 31.5985 22.3642L34.8605 19.1023C35.86 18.1028 36.4216 16.7471 36.4216 15.3336C36.4216 12.3901 34.0354 10.0039 31.0919 10.0039C29.6783 10.0039 28.3227 10.5654 27.3232 11.5649L18.4927 20.3955Z" fill="#394149"/>
</g>
<defs>
<clipPath id="clip0_211_2076">
<rect width="36.1956" height="13.9214" fill="white" transform="translate(0.22583 10.0039)"/>
</clipPath>
</defs>
</svg>
